<svg width="583" height="162" viewBox="0 0 583 162" fill="none" xmlns="http://www.w3.org/2000/svg">
<path d="M0.0999999 117.51L30.7 47.5096H53.9L84.5 117.51H60.1L37.5 58.7096H46.7L24.1 117.51H0.0999999ZM18.3 105.31L24.3 88.3096H56.5L62.5 105.31H18.3ZM88.2664 117.51V47.5096H122.766C130.566 47.5096 137.433 48.943 143.366 51.8096C149.3 54.6096 153.933 58.6096 157.266 63.8096C160.6 69.0096 162.266 75.2096 162.266 82.4096C162.266 89.6763 160.6 95.943 157.266 101.21C153.933 106.41 149.3 110.443 143.366 113.31C137.433 116.11 130.566 117.51 122.766 117.51H88.2664ZM111.866 99.1096H121.766C125.1 99.1096 128 98.4763 130.466 97.2096C133 95.943 134.966 94.0763 136.366 91.6096C137.766 89.0763 138.466 86.0096 138.466 82.4096C138.466 78.8763 137.766 75.8763 136.366 73.4096C134.966 70.943 133 69.0763 130.466 67.8096C128 66.543 125.1 65.9096 121.766 65.9096H111.866V99.1096ZM170.884 117.51V47.5096H205.384C213.184 47.5096 220.05 48.943 225.984 51.8096C231.917 54.6096 236.55 58.6096 239.884 63.8096C243.217 69.0096 244.884 75.2096 244.884 82.4096C244.884 89.6763 243.217 95.943 239.884 101.21C236.55 106.41 231.917 110.443 225.984 113.31C220.05 116.11 213.184 117.51 205.384 117.51H170.884ZM194.484 99.1096H204.384C207.717 99.1096 210.617 98.4763 213.084 97.2096C215.617 95.943 217.584 94.0763 218.984 91.6096C220.384 89.0763 221.084 86.0096 221.084 82.4096C221.084 78.8763 220.384 75.8763 218.984 73.4096C217.584 70.943 215.617 69.0763 213.084 67.8096C210.617 66.543 207.717 65.9096 204.384 65.9096H194.484V99.1096ZM253.501 117.51V47.5096H277.101V99.2096H308.701V117.51H253.501ZM315.22 117.51V47.5096H338.82V99.2096H370.42V117.51H315.22ZM387.907 117.51V86.8096L393.307 100.91L361.507 47.5096H386.407L407.907 84.0096H393.407L415.107 47.5096H437.907L406.307 100.91L411.507 86.8096V117.51H387.907Z" fill="#0039FF"/>
<circle cx="7" cy="7" r="7" transform="matrix(-0.707107 -0.707107 -0.707107 0.707107 496.51 80.6102)" fill="#0039FF"/>
<circle cx="6.5" cy="6.5" r="6.5" transform="matrix(-0.707107 -0.707107 -0.707107 0.707107 482.014 66.8217)" fill="#0039FF"/>
<circle cx="6" cy="6" r="6" transform="matrix(-0.707107 -0.707107 -0.707107 0.707107 468.225 53.7402)" fill="#0039FF"/>
<circle opacity="0.9" cx="5.5" cy="5.5" r="5.5" transform="matrix(-0.707107 -0.707107 -0.707107 0.707107 455.145 41.3658)" fill="#0039FF"/>
<circle opacity="0.8" cx="5" cy="5" r="5" transform="matrix(-0.707107 -0.707107 -0.707107 0.707107 442.77 29.6985)" fill="#0039FF"/>
<circle opacity="0.7" cx="4.5" cy="4.5" r="4.5" transform="matrix(-0.707107 -0.707107 -0.707107 0.707107 431.102 18.7384)" fill="#0039FF"/>
<circle opacity="0.6" cx="4.5" cy="4.5" r="4.5" transform="matrix(-0.707107 -0.707107 -0.707107 0.707107 420.496 8.13177)" fill="#0039FF"/>
<circle cx="486.61" cy="80.4092" r="7" transform="rotate(135 486.61 80.4092)" fill="#0039FF"/>
<circle cx="472.821" cy="94.1978" r="6.5" transform="rotate(135 472.821 94.1978)" fill="#0039FF"/>
<circle cx="459.739" cy="107.279" r="6" transform="rotate(135 459.739 107.279)" fill="#0039FF"/>
<circle opacity="0.9" cx="447.366" cy="119.654" r="5.5" transform="rotate(135 447.366 119.654)" fill="#0039FF"/>
<circle opacity="0.8" cx="435.698" cy="131.321" r="5" transform="rotate(135 435.698 131.321)" fill="#0039FF"/>
<circle opacity="0.7" cx="424.738" cy="142.281" r="4.5" transform="rotate(135 424.738 142.281)" fill="#0039FF"/>
<circle opacity="0.6" cx="414.132" cy="152.888" r="4.5" transform="rotate(135 414.132 152.888)" fill="#0039FF"/>
<circle cx="7" cy="7" r="7" transform="matrix(-0.707107 -0.707107 -0.707107 0.707107 525.02 80.6102)" fill="#0039FF"/>
<circle cx="6.5" cy="6.5" r="6.5" transform="matrix(-0.707107 -0.707107 -0.707107 0.707107 510.523 66.8217)" fill="#0039FF"/>
<circle cx="6" cy="6" r="6" transform="matrix(-0.707107 -0.707107 -0.707107 0.707107 496.734 53.7402)" fill="#0039FF"/>
<circle opacity="0.9" cx="5.5" cy="5.5" r="5.5" transform="matrix(-0.707107 -0.707107 -0.707107 0.707107 483.654 41.3658)" fill="#0039FF"/>
<circle opacity="0.8" cx="5" cy="5" r="5" transform="matrix(-0.707107 -0.707107 -0.707107 0.707107 471.279 29.6985)" fill="#0039FF"/>
<circle opacity="0.7" cx="4.5" cy="4.5" r="4.5" transform="matrix(-0.707107 -0.707107 -0.707107 0.707107 459.611 18.7384)" fill="#0039FF"/>
<circle opacity="0.6" cx="4.5" cy="4.5" r="4.5" transform="matrix(-0.707107 -0.707107 -0.707107 0.707107 449.006 8.13177)" fill="#0039FF"/>
<circle cx="515.12" cy="80.4092" r="7" transform="rotate(135 515.12 80.4092)" fill="#0039FF"/>
<circle cx="501.331" cy="94.1978" r="6.5" transform="rotate(135 501.331 94.1978)" fill="#0039FF"/>
<circle cx="488.249" cy="107.279" r="6" transform="rotate(135 488.249 107.279)" fill="#0039FF"/>
<circle opacity="0.9" cx="475.876" cy="119.654" r="5.5" transform="rotate(135 475.876 119.654)" fill="#0039FF"/>
<circle opacity="0.8" cx="464.208" cy="131.321" r="5" transform="rotate(135 464.208 131.321)" fill="#0039FF"/>
<circle opacity="0.7" cx="453.247" cy="142.281" r="4.5" transform="rotate(135 453.247 142.281)" fill="#0039FF"/>
<circle opacity="0.6" cx="442.642" cy="152.888" r="4.5" transform="rotate(135 442.642 152.888)" fill="#0039FF"/>
<circle cx="7" cy="7" r="7" transform="matrix(-0.707107 -0.707107 -0.707107 0.707107 553.529 80.6102)" fill="#0039FF"/>
<circle cx="6.5" cy="6.5" r="6.5" transform="matrix(-0.707107 -0.707107 -0.707107 0.707107 539.033 66.8217)" fill="#0039FF"/>
<circle cx="6" cy="6" r="6" transform="matrix(-0.707107 -0.707107 -0.707107 0.707107 525.244 53.7402)" fill="#0039FF"/>
<circle opacity="0.9" cx="5.5" cy="5.5" r="5.5" transform="matrix(-0.707107 -0.707107 -0.707107 0.707107 512.164 41.3658)" fill="#0039FF"/>
<circle opacity="0.8" cx="5" cy="5" r="5" transform="matrix(-0.707107 -0.707107 -0.707107 0.707107 499.789 29.6985)" fill="#0039FF"/>
<circle opacity="0.7" cx="4.5" cy="4.5" r="4.5" transform="matrix(-0.707107 -0.707107 -0.707107 0.707107 488.121 18.7384)" fill="#0039FF"/>
<circle opacity="0.6" cx="4.5" cy="4.5" r="4.5" transform="matrix(-0.707107 -0.707107 -0.707107 0.707107 477.516 8.13177)" fill="#0039FF"/>
<circle cx="543.63" cy="80.4092" r="7" transform="rotate(135 543.63 80.4092)" fill="#0039FF"/>
<circle cx="529.841" cy="94.1978" r="6.5" transform="rotate(135 529.841 94.1978)" fill="#0039FF"/>
<circle cx="516.759" cy="107.279" r="6" transform="rotate(135 516.759 107.279)" fill="#0039FF"/>
<circle opacity="0.9" cx="504.386" cy="119.654" r="5.5" transform="rotate(135 504.386 119.654)" fill="#0039FF"/>
<circle opacity="0.8" cx="492.718" cy="131.321" r="5" transform="rotate(135 492.718 131.321)" fill="#0039FF"/>
<circle opacity="0.7" cx="481.757" cy="142.281" r="4.5" transform="rotate(135 481.757 142.281)" fill="#0039FF"/>
<circle opacity="0.6" cx="471.152" cy="152.888" r="4.5" transform="rotate(135 471.152 152.888)" fill="#0039FF"/>
<circle cx="7" cy="7" r="7" transform="matrix(-0.707107 -0.707107 -0.707107 0.707107 582.039 80.6102)" fill="#0039FF"/>
<circle cx="6.5" cy="6.5" r="6.5" transform="matrix(-0.707107 -0.707107 -0.707107 0.707107 567.543 66.8217)" fill="#0039FF"/>
<circle cx="6" cy="6" r="6" transform="matrix(-0.707107 -0.707107 -0.707107 0.707107 553.754 53.7402)" fill="#0039FF"/>
<circle opacity="0.9" cx="5.5" cy="5.5" r="5.5" transform="matrix(-0.707107 -0.707107 -0.707107 0.707107 540.674 41.3658)" fill="#0039FF"/>
<circle opacity="0.8" cx="5" cy="5" r="5" transform="matrix(-0.707107 -0.707107 -0.707107 0.707107 528.299 29.6985)" fill="#0039FF"/>
<circle opacity="0.7" cx="4.5" cy="4.5" r="4.5" transform="matrix(-0.707107 -0.707107 -0.707107 0.707107 516.631 18.7384)" fill="#0039FF"/>
<circle opacity="0.6" cx="4.5" cy="4.5" r="4.5" transform="matrix(-0.707107 -0.707107 -0.707107 0.707107 506.025 8.13177)" fill="#0039FF"/>
<circle cx="572.14" cy="80.4092" r="7" transform="rotate(135 572.14 80.4092)" fill="#0039FF"/>
<circle cx="558.351" cy="94.1978" r="6.5" transform="rotate(135 558.351 94.1978)" fill="#0039FF"/>
<circle cx="545.269" cy="107.279" r="6" transform="rotate(135 545.269 107.279)" fill="#0039FF"/>
<circle opacity="0.9" cx="532.896" cy="119.654" r="5.5" transform="rotate(135 532.896 119.654)" fill="#0039FF"/>
<circle opacity="0.8" cx="521.228" cy="131.321" r="5" transform="rotate(135 521.228 131.321)" fill="#0039FF"/>
<circle opacity="0.7" cx="510.267" cy="142.281" r="4.5" transform="rotate(135 510.267 142.281)" fill="#0039FF"/>
<circle opacity="0.6" cx="499.661" cy="152.888" r="4.5" transform="rotate(135 499.661 152.888)" fill="#0039FF"/>
</svg>
