<svg width="246" height="246" viewBox="0 0 246 246" fill="none" xmlns="http://www.w3.org/2000/svg">
<path d="M215.374 0.929077H31.4556C14.581 0.929077 0.901367 14.6087 0.901367 31.4833V215.402C0.901367 232.277 14.581 245.956 31.4556 245.956H215.374C232.249 245.956 245.928 232.277 245.928 215.402V31.4833C245.928 14.6087 232.249 0.929077 215.374 0.929077Z" fill="url(#paint0_linear_132_939)"/>
<path d="M191.243 49.8386C99.0861 50.3187 106.372 135.035 42.0299 135.063C41.9593 135.063 41.8887 135.119 41.8887 135.19C41.8887 141.007 41.8887 189.804 41.8887 196.708C41.8887 196.779 41.9451 196.835 42.0157 196.835C154.561 202.031 134.06 114.053 205.885 111.667C205.955 111.667 206.026 111.597 206.026 111.526V94.8511V49.9939C206.026 49.9092 205.955 49.8527 205.885 49.8527H191.243V49.8386Z" fill="white"/>
<path d="M206.026 150.51H159.488V197.047H206.026V150.51Z" fill="white"/>
<path d="M88.426 49.8386H41.8887V96.376H88.426V49.8386Z" fill="white"/>
<defs>
<linearGradient id="paint0_linear_132_939" x1="-1.71663" y1="246.916" x2="220.133" y2="32.7832" gradientUnits="userSpaceOnUse">
<stop stop-color="#339DFF"/>
<stop offset="1" stop-color="#0EC1D3"/>
</linearGradient>
</defs>
</svg>
