<svg width="142" height="142" viewBox="0 0 142 142" fill="none" xmlns="http://www.w3.org/2000/svg">
<g clip-path="url(#clip0_1315_498)">
<path d="M70.7463 0.557617C90.1973 0.557617 107.81 8.44291 120.559 21.1909C126.399 27.0326 131.218 33.8945 134.728 41.4858H104.7C104.013 40.696 103.3 39.9316 102.559 39.1911C94.418 31.0515 83.1701 26.0156 70.7463 26.0156C58.3224 26.0156 47.0745 31.0515 38.935 39.1911C35.9713 42.1548 33.4191 45.5301 31.3723 49.2249V19.6511C31.3723 17.412 31.0704 15.2396 30.5078 13.1753C41.9162 5.22173 55.7862 0.557617 70.7463 0.557617ZM140.044 58.275C140.797 62.4036 141.193 66.6577 141.193 71.0039C141.193 75.3502 140.797 79.6043 140.044 83.7329H113.909C115.097 79.6965 115.735 75.4249 115.735 71.0039C115.735 66.583 115.096 62.3114 113.907 58.275H140.044Z" fill="#F1F1F1"/>
<path d="M31.3701 58.2749H101.481H128.461V83.7328H33.3454C32.2219 80.3512 31.5497 76.7581 31.3701 73.0189V58.2749Z" fill="#F1F1F1"/>
<path d="M0.299805 72.1291V0.557617H6.66429C17.1812 0.557617 25.7577 9.13577 25.7577 19.6511V71.0024C25.7577 112.441 77.4396 131.842 104.7 100.521H134.726C114.268 144.797 55.7002 155.582 20.9347 120.815C8.43299 108.314 0.608096 91.1351 0.309339 72.1291H0.299805Z" fill="#16AC7F"/>
</g>
<defs>
<clipPath id="clip0_1315_498">
<rect width="142" height="142" fill="white"/>
</clipPath>
</defs>
</svg>
